<svg xmlns="http://www.w3.org/2000/svg" width="87.198" height="104" viewBox="0 0 87.198 104"><g transform="translate(-663.969 -186.56)"><g transform="translate(663.969 186.56)"><g transform="translate(0 0)"><path d="M126.341,42.132a35.922,35.922,0,0,0-2.61-9.756,18.818,18.818,0,0,0-2.723-4.422,11.725,11.725,0,0,0-9.331-4.365l-1.27-.029-1.27.073a25.214,25.214,0,0,0-2.517.3,63.8,63.8,0,0,0-9.5,2.815,46.739,46.739,0,0,1-9.434,2.239,53.33,53.33,0,0,1-9.757.252,53.636,53.636,0,0,0,9.819.382,47.21,47.21,0,0,0,9.717-1.754,68.812,68.812,0,0,1,9.4-2.316,23.582,23.582,0,0,1,2.359-.168l1.179-.018,1.179.079a10.142,10.142,0,0,1,4.32,1.1c2.639,1.337,4.436,3.964,5.592,6.793a33.4,33.4,0,0,1,2.089,9.127,83.233,83.233,0,0,1-.622,19.11c-.428,3.183-.984,6.35-1.63,9.5s-1.347,6.293-2.2,9.37a61.215,61.215,0,0,1-3.159,8.907,18.6,18.6,0,0,1-5.1,7.071,9.617,9.617,0,0,1-1.7.993,8.564,8.564,0,0,1-1.87.549,9.6,9.6,0,0,1-2.029.125c-.348,0-.7-.044-1.061-.073a7.645,7.645,0,0,1-.973-.161,4.41,4.41,0,0,1-.778-.254,5.651,5.651,0,0,1-.767-.441,7.693,7.693,0,0,1-.756-.575c-.239-.241-.494-.445-.725-.717A21.841,21.841,0,0,1,97.6,92.26c-1.619-2.671-2.988-5.619-4.831-8.55a22.389,22.389,0,0,0-1.564-2.19,11.08,11.08,0,0,0-2.143-2.073,6.825,6.825,0,0,0-3.252-1.306c-.312-.018-.627-.033-.937-.031-.3.031-.6.068-.907.115a7.55,7.55,0,0,0-1.6.5,9.548,9.548,0,0,0-2.6,1.7,15.993,15.993,0,0,0-1.908,2.06,45.076,45.076,0,0,0-2.869,4.253A41.152,41.152,0,0,1,69.637,94.3a10.544,10.544,0,0,1-3.327,2.325,8.363,8.363,0,0,1-3.868.58,9.067,9.067,0,0,1-3.855-1.12,14.165,14.165,0,0,1-3.42-2.561l-.4-.382-.37-.419-.743-.841-.688-.9a10.508,10.508,0,0,1-.664-.929l-.638-.955c-.208-.325-.394-.664-.593-.993-.407-.655-.758-1.352-1.119-2.04a54,54,0,0,1-3.5-8.759,79.392,79.392,0,0,1-2.236-9.265,82.271,82.271,0,0,1-1.177-9.484,66.982,66.982,0,0,1,.029-9.524A43.753,43.753,0,0,1,44.8,39.762a24.883,24.883,0,0,1,4.076-8.274,11.5,11.5,0,0,1,7.512-4.42,17.4,17.4,0,0,1,9.054,1.544A32.438,32.438,0,0,1,69.7,30.8c1.345.834,2.765,1.736,4.2,2.552a29.769,29.769,0,0,0,9.307,3.386A20.056,20.056,0,0,0,88.152,37a13.74,13.74,0,0,0,4.767-1.134,13.567,13.567,0,0,1-4.78.818,19.432,19.432,0,0,1-4.8-.563A29,29,0,0,1,74.5,32.356c-1.356-.869-2.643-1.8-4.034-2.74a34.169,34.169,0,0,0-4.346-2.484,24.194,24.194,0,0,0-4.778-1.714,16.219,16.219,0,0,0-5.184-.395,12.565,12.565,0,0,0-5.065,1.568,15.111,15.111,0,0,0-4.07,3.356,27.352,27.352,0,0,0-4.851,8.969,43.983,43.983,0,0,0-2.138,9.829,70.485,70.485,0,0,0-.283,9.974A81.807,81.807,0,0,0,42.9,78.365a57.914,57.914,0,0,0,3.6,9.411c.383.759.756,1.522,1.194,2.259.215.371.416.745.642,1.111l.7,1.086a12.793,12.793,0,0,0,.743,1.068l.78,1.05.86,1.006.432.5.476.475a17.545,17.545,0,0,0,4.349,3.322,13.171,13.171,0,0,0,5.468,1.608,12.478,12.478,0,0,0,5.731-.854,14.657,14.657,0,0,0,4.679-3.192,44.362,44.362,0,0,0,6-8.3,40.61,40.61,0,0,1,2.6-3.836A7.965,7.965,0,0,1,84.039,82.6a4.052,4.052,0,0,1,.729-.236,1.6,1.6,0,0,1,.6-.035,2.62,2.62,0,0,1,1.225.525,6.96,6.96,0,0,1,1.358,1.322,17.462,17.462,0,0,1,1.283,1.776c1.648,2.574,3.055,5.541,4.82,8.437A25.776,25.776,0,0,0,97.2,98.659c.3.346.675.666,1.019.995a11.772,11.772,0,0,0,1.192.9,9.883,9.883,0,0,0,1.362.761,8.509,8.509,0,0,0,1.546.505,11.965,11.965,0,0,0,1.442.234c.458.038.915.084,1.385.088a13.611,13.611,0,0,0,2.851-.2,12.475,12.475,0,0,0,2.811-.852,13.534,13.534,0,0,0,2.5-1.5,17.434,17.434,0,0,0,3.7-4.079,31.16,31.16,0,0,0,2.482-4.583,64.79,64.79,0,0,0,3.223-9.529,139.922,139.922,0,0,0,3.526-19.443A82.878,82.878,0,0,0,126.341,42.132Z" transform="translate(-39.687 -23.56)" fill="#fff"/><path d="M94.845,111.783a25.586,25.586,0,0,0,1,3.288c.217.538.4,1.09.656,1.616l.81,1.572a17.043,17.043,0,0,0,.968,1.506c.174.244.324.5.52.735l.586.693.6.685c.206.224.445.418.667.629a12.383,12.383,0,0,0,1.406,1.189,16.147,16.147,0,0,0,3.188,1.838,14.5,14.5,0,0,0,1.721.624,13.072,13.072,0,0,0,1.76.434,20.365,20.365,0,0,0,7.017.049,26.487,26.487,0,0,0,6.485-1.933,25.077,25.077,0,0,0,5.69-3.4c-1.063.3-2.11.558-3.159.8-1.054.224-2.092.45-3.136.624a37.993,37.993,0,0,1-6.177.606,17.354,17.354,0,0,1-10.872-3.042,16.743,16.743,0,0,1-3.842-4.127,30.018,30.018,0,0,1-2.7-5.35A78.389,78.389,0,0,1,95.1,100.732c.018-.013.036-.029.055-.042a15.914,15.914,0,0,1,2.69-1.642,18.708,18.708,0,0,1,3.765-1.189,5.536,5.536,0,0,0-4.244-2.105,7.483,7.483,0,0,0-4.724,1.531,9.3,9.3,0,0,0-2.909,3.638,7.882,7.882,0,0,0-.68,4.506,39.673,39.673,0,0,0,3.358-2.546c.629-.518,1.22-1.006,1.8-1.459a33.814,33.814,0,0,0,.639,10.364Z" transform="translate(-78.053 -79.862)" fill="#fff"/><g transform="translate(12.716 93.1)"><g transform="translate(0 0)"><path d="M96.028,418.647a.793.793,0,0,1,1.1-.106,4.934,4.934,0,0,0,2.889,1.165,3.246,3.246,0,0,0,1.891-.56,1.364,1.364,0,0,0,.651-1.09.886.886,0,0,0-.135-.485,1.415,1.415,0,0,0-.454-.454,6.041,6.041,0,0,0-2.073-.71h-.031a8.109,8.109,0,0,1-1.951-.589,3.245,3.245,0,0,1-1.407-1.179,2.329,2.329,0,0,1-.347-1.24,2.788,2.788,0,0,1,1.212-2.207,4.477,4.477,0,0,1,2.617-.8,5.926,5.926,0,0,1,3.3,1.209.78.78,0,0,1,.213,1.074.762.762,0,0,1-1.074.226A4.388,4.388,0,0,0,100,411.93a2.9,2.9,0,0,0-1.694.514,1.209,1.209,0,0,0-.576.952.732.732,0,0,0,.106.423,1.477,1.477,0,0,0,.407.4,5.241,5.241,0,0,0,1.891.667h.031a8.893,8.893,0,0,1,2.088.636,3.535,3.535,0,0,1,1.512,1.255,2.464,2.464,0,0,1,.364,1.288,2.927,2.927,0,0,1-1.3,2.345,4.731,4.731,0,0,1-2.8.862,6.53,6.53,0,0,1-3.873-1.512.8.8,0,0,1-.126-1.11Z" transform="translate(-95.861 -410.389)" fill="#fff"/><path d="M173.26,412.592v8.925a.854.854,0,0,1-.848.832.83.83,0,0,1-.832-.832v-6.368l-2.18,3.025a.825.825,0,0,1-.68.348h-.031a.854.854,0,0,1-.693-.348l-2.164-3.025v6.368a.842.842,0,1,1-1.684,0v-8.925a.84.84,0,0,1,.832-.832h.047a.825.825,0,0,1,.667.348l3.009,4.174,3.009-4.174a.82.82,0,0,1,.68-.348h.016a.863.863,0,0,1,.853.832Z" transform="translate(-148.777 -411.46)" fill="#fff"/><path d="M242.789,412.592a.82.82,0,0,1,.832-.832.844.844,0,0,1,.848.832v8.925a.844.844,0,0,1-.848.832.82.82,0,0,1-.832-.832Z" transform="translate(-209.78 -411.459)" fill="#fff"/><path d="M283.64,421.508v-8.925a.83.83,0,0,1,.832-.832.844.844,0,0,1,.848.832v8.079h4.1a.842.842,0,0,1,0,1.684H284.47a.833.833,0,0,1-.83-.835Z" transform="translate(-241.397 -411.452)" fill="#fff"/><path d="M342.589,421.509v-8.925a.82.82,0,0,1,.832-.832h4.947a.84.84,0,0,1,.832.832.854.854,0,0,1-.832.848h-4.1V416.2h3.525a.842.842,0,0,1,0,1.684h-3.525v2.783h4.1a.842.842,0,0,1,0,1.684h-4.9c-.031,0-.031-.016-.031-.016l-.016.016a.833.833,0,0,1-.833-.835Z" transform="translate(-287.086 -411.453)" fill="#fff"/></g></g></g></g></g></svg>