<?xml version="1.0"?>
<svg xmlns="http://www.w3.org/2000/svg" xmlns:xlink="http://www.w3.org/1999/xlink" xmlns:svgjs="http://svgjs.com/svgjs" version="1.1" width="512" height="512" x="0" y="0" viewBox="0 0 512 512" style="enable-background:new 0 0 512 512" xml:space="preserve" class=""><g><g xmlns="http://www.w3.org/2000/svg"><path d="M133.815,376a28,28,0,0,0,27.014-35.367c-.036-.129-.074-.257-.116-.383L147.68,300.423A28.062,28.062,0,0,0,120.724,280H116a28.032,28.032,0,0,0-28,28v40a28.032,28.032,0,0,0,28,28ZM104,348V308a12.013,12.013,0,0,1,12-12h4.724a12.025,12.025,0,0,1,11.577,8.843c.035.129.074.256.116.383l13.02,39.786A12,12,0,0,1,133.815,360H116A12.013,12.013,0,0,1,104,348Z" fill="#f8f8f8" data-original="#000000" style=""/><path d="M378.185,376H396a28.032,28.032,0,0,0,28-28V308a28.032,28.032,0,0,0-28-28h-4.724a28.062,28.062,0,0,0-26.956,20.423L351.287,340.25c-.042.126-.08.254-.116.383A28,28,0,0,0,378.185,376Zm-11.622-30.988,13.02-39.786c.042-.127.081-.254.116-.383A12.025,12.025,0,0,1,391.276,296H396a12.013,12.013,0,0,1,12,12v40a12.013,12.013,0,0,1-12,12H378.185a12,12,0,0,1-11.622-14.988Z" fill="#f8f8f8" data-original="#000000" style=""/><path d="M478,160H448V144h14a18.021,18.021,0,0,0,18-18V98a18.021,18.021,0,0,0-18-18H440.968A37.981,37.981,0,0,0,410,64H381.766l-7.339-22.017A37.951,37.951,0,0,0,338.377,16H328V32h10.377a21.973,21.973,0,0,1,20.872,15.043L364.9,64H264V32h48.284V16H173.623a37.951,37.951,0,0,0-36.05,25.983L130.234,64H102A37.981,37.981,0,0,0,71.032,80H50A18.021,18.021,0,0,0,32,98v28a18.021,18.021,0,0,0,18,18H64v16H34a18.021,18.021,0,0,0-18,18v68a18.021,18.021,0,0,0,18,18H62.675l-7.263,47.207,15.815,2.433L78.863,264H433.137L448,360.612V392H64V360.612l4.83-31.4-15.814-2.432-4.923,32A7.982,7.982,0,0,0,48,360v32H40a8,8,0,0,0-8,8v20a28.032,28.032,0,0,0,28,28H72v20a28.032,28.032,0,0,0,28,28h40a28.032,28.032,0,0,0,28-28V448H344v20a28.032,28.032,0,0,0,28,28h40a28.032,28.032,0,0,0,28-28V448h8a28.032,28.032,0,0,0,28-28V400a8,8,0,0,0-8-8h-4V360a7.982,7.982,0,0,0-.093-1.216L449.325,264H478a18.021,18.021,0,0,0,18-18V178A18.021,18.021,0,0,0,478,160ZM152,468a12.013,12.013,0,0,1-12,12H100a12.013,12.013,0,0,1-12-12V448h64Zm272,0a12.013,12.013,0,0,1-12,12H372a12.013,12.013,0,0,1-12-12V448h64Zm36-48a12.013,12.013,0,0,1-12,12H60a12.013,12.013,0,0,1-12-12V408H460Zm2-324a2,2,0,0,1,2,2v28a2,2,0,0,1-2,2H448V102a38.052,38.052,0,0,0-.474-6ZM152.751,47.043A21.973,21.973,0,0,1,173.623,32H248V64H147.1ZM50,128a2,2,0,0,1-2-2V98a2,2,0,0,1,2-2H64.474A38.052,38.052,0,0,0,64,102v26ZM32,246V178a2,2,0,0,1,2-2H64v72H34A2,2,0,0,1,32,246Zm112,2V232a32.036,32.036,0,0,1,32-32h16a32.036,32.036,0,0,1,32,32v16Zm144,0V232a32.036,32.036,0,0,1,32-32h16a32.036,32.036,0,0,1,32,32v16Zm96,0V232a48.055,48.055,0,0,0-48-48H320a48.055,48.055,0,0,0-48,48v16H240V232a48.055,48.055,0,0,0-48-48H176a48.055,48.055,0,0,0-48,48v16H112.938L127.16,120H208v40a8,8,0,0,0,8,8h80a8,8,0,0,0,8-8V120h80.84l14.222,128ZM224,120h64v32H224ZM415.16,248,400.938,120H416V104H96v16h15.062L96.84,248H80V102a22.025,22.025,0,0,1,22-22H410a22.025,22.025,0,0,1,22,22V248ZM480,246a2,2,0,0,1-2,2H448V176h30a2,2,0,0,1,2,2Z" fill="#f8f8f8" data-original="#000000" style=""/><path d="M272,280H240a8,8,0,0,0-8,8v16H216a8,8,0,0,0-8,8v32a8,8,0,0,0,8,8h16v16a8,8,0,0,0,8,8h32a8,8,0,0,0,8-8V352h16a8,8,0,0,0,8-8V312a8,8,0,0,0-8-8H280V288A8,8,0,0,0,272,280Zm16,40v16H272a8,8,0,0,0-8,8v16H248V344a8,8,0,0,0-8-8H224V320h16a8,8,0,0,0,8-8V296h16v16a8,8,0,0,0,8,8Z" fill="#f8f8f8" data-original="#000000" style=""/><rect x="176" y="352" width="16" height="16" fill="#f8f8f8" data-original="#000000" style=""/><rect x="320" y="352" width="16" height="16" fill="#f8f8f8" data-original="#000000" style=""/></g></g></svg>
