<svg xmlns="http://www.w3.org/2000/svg" width="148.79" height="149.877" viewBox="0 0 148.79 149.877"><path d="M8.44,149.344A13.22,13.22,0,0,1,1.8,143.513c-1.345-2.577-.749-11.109,1.191-17.041A40.024,40.024,0,0,1,13.635,109.48c5.013-5.011,11.652-8.965,17.576-10.466,1.668-.423,2.982-1.1,3.052-1.583.068-.462-1.2-1.846-2.818-3.075-2.421-1.838-2.909-2.512-2.76-3.8.273-2.352,1.625-2.185,5.279.652,7.936,6.162,17.225,7.715,26.184,4.377A26.564,26.564,0,0,0,74.956,82.428c2.459-4.994,2.137-5.635-2.253-4.481-2.656.7-4.951.8-10.437.479a166.578,166.578,0,0,0-22.559,0c-5.011.292-7.68.173-10.413-.463-2.021-.471-3.8-.654-3.951-.409a7.409,7.409,0,0,0,.693,3.063c1.089,2.937.775,4.542-.888,4.542-1.543,0-2.1-.837-3.717-5.566-1.3-3.818-1.585-4.189-4.065-5.369A12.9,12.9,0,0,1,9.824,62.369a11.745,11.745,0,0,1,2.717-8.124l1.464-1.92.107-19.469c.094-17.079.232-19.746,1.124-21.718A17.836,17.836,0,0,1,23.421,2.5L27.11.5,51.472.325C67.006.216,76.4.371,77.4.751A5.684,5.684,0,0,1,79.94,3.379a6.014,6.014,0,0,0,2.669,2.736,10.02,10.02,0,0,1,3.276,2.77l1.576,2.065v18.8c0,10.338-.2,19.339-.444,20-.339.921.047,1.754,1.627,3.516a13.375,13.375,0,0,1,3.263,11.65,12.672,12.672,0,0,1-7.049,9.05c-3.134,1.67-3.465,2.041-4.11,4.6a30.925,30.925,0,0,1-9.336,14.859c-3.551,3.272-4.267,4.2-3.571,4.644a3.841,3.841,0,0,0,1.65.56c1.535.018,8.662,3.164,12.175,5.374a21.771,21.771,0,0,0,4.171,2.252c.326,0,.717-1.912.871-4.248.464-7.076,4.037-12.459,10.027-15.1a17.716,17.716,0,0,1,18.13,2.055,15.072,15.072,0,0,0,3.179,2.064,17.275,17.275,0,0,0,3.393-2.074c9.5-6.754,21.54-3.9,26.642,6.306a13.553,13.553,0,0,1,1.782,7.434,28.742,28.742,0,0,1-.571,5.912c-.312,1.128-1.486,6.9-2.61,12.837s-2.289,11.033-2.59,11.334a1.775,1.775,0,0,1-2.893-1.325c-.094-.8.9-7.043,2.2-13.866a150.844,150.844,0,0,0,2.355-15.234,12.572,12.572,0,0,0-4.591-9.651,13.107,13.107,0,0,0-17.229-.4c-3.153,2.459-5.237,3.071-7.693,2.26a7.361,7.361,0,0,1-2.8-1.609,14.425,14.425,0,0,0-3.709-2.308,12.68,12.68,0,0,0-14.506,2.136,12.945,12.945,0,0,0-4.623,9.915c-.015,2.36,6.039,36.032,6.943,38.611a8.535,8.535,0,0,0,5.163,4.544c2.322.436,5.755-.939,6.926-2.774a27.407,27.407,0,0,0,1.825-6.348c.524-2.739,1.085-5.6,1.247-6.349a5.62,5.62,0,0,1,5.24-4.2c2.484,0,4.124.765,4.95,2.309a49.1,49.1,0,0,1,1.767,7.164c1.331,6.871,2.352,8.636,5.678,9.811,2.123.751,2.552.724,4.634-.293a7.629,7.629,0,0,0,3.624-3.757c.978-1.94,1.675-2.637,2.637-2.637,1.073,0,1.339.371,1.482,2.071.4,4.735-6.06,9.872-11.478,9.129-5.648-.774-8.811-4.394-10.071-11.525s-1.7-8.264-3.12-8.061c-1.138.162-1.425.893-2.5,6.361-1.385,7.049-2.523,9.344-5.662,11.422a10.116,10.116,0,0,1-10.293.852c-2.785-1.2-3.151-1.232-4.408-.408a14.82,14.82,0,0,1-8.233,1.363,2.723,2.723,0,0,1-1.747-1.237c-.688-1.792.243-2.482,3.78-2.8,3.743-.339,5.474-1.259,4.948-2.63-.178-.465-1.385-6.553-2.681-13.529s-2.81-13.586-3.364-14.688c-1.679-3.339-11.736-10.9-12.922-9.714-.206.206.253,1.477,1.019,2.824,4.528,7.957,4.849,8.68,4.491,10.108a4.288,4.288,0,0,1-2.4,2.428c-2.332,1.112-2.457,1.646-.864,3.683,2.167,2.77,1.639,3.865-5.89,12.226-3.879,4.308-6.954,8.131-6.833,8.5.141.426,2.834.769,7.5.957,7.128.287,7.281.322,7.475,1.692a2.081,2.081,0,0,1-.586,1.9c-.431.273-15.945.489-34.475.48-27.091-.014-34.135-.175-35.955-.824Zm28.877-3.788c.646-.409-.829-2.375-6.592-8.788-4.083-4.544-7.424-8.765-7.424-9.38a6.093,6.093,0,0,1,1.465-2.86,8.988,8.988,0,0,0,1.465-2.084,7.325,7.325,0,0,0-2.344-1.539c-3.475-1.773-3.423-3.515.286-9.625,2.521-4.154,3.23-6.2,2.149-6.2-1.36,0-7.865,4.973-11.336,8.667a36.018,36.018,0,0,0-9.84,23.92c-.01,4.075,1.228,6.242,4.336,7.6,2.111.919,26.44,1.171,27.835.288Zm18.9-.188c.588-.472,2.609-8.095,5.69-21.459,5.029-21.814,5.079-22.34,2.118-22.34-1.73,0-2,.4-4.968,7.447-2.852,6.763-4.2,8.351-7.425,8.745-3.984.487-5.47-1.016-8.757-8.857-1.58-3.77-3.2-6.991-3.607-7.158-1.541-.637-3.661.391-3.661,1.776,0,2.543,9.4,41.643,10.118,42.1,1.192.757,9.482.555,10.492-.256Zm-17.124-7.324c-.016-.564-1.539-7.485-3.384-15.381-2.478-10.6-3.577-14.355-4.2-14.355-.947,0-5.181,6.477-5.237,8.013-.021.57,1.009,1.556,2.454,2.351,3.278,1.8,3.559,3.653,1,6.57l-1.852,2.109,1.92,2.2c8.929,10.22,9.366,10.619,9.305,8.5Zm34.337-10.272c.23-.68-.276-1.759-1.45-3.1a10.14,10.14,0,0,1-1.8-2.489c0-1.091,2.092-3.239,3.885-3.988,1.086-.454,1.974-1.062,1.974-1.351,0-1.19-4.851-8.833-5.606-8.833-.449,0-.958.593-1.13,1.318C65.42,125.7,62.723,138.275,63,138.72c.393.636,9.882-9.322,10.431-10.947ZM54.522,109.016a40.876,40.876,0,0,0,2.547-6.217l.33-1.652H50.9c-3.576,0-6.5.242-6.5.537,0,.824,4.127,10.623,4.837,11.485,1.437,1.744,3.035.488,5.29-4.154ZM45.86,74c3.451-.773,7.038-.667,12.3.364a29.848,29.848,0,0,0,8.2.562c3.944-.4,9.581-1.864,10.693-2.779.526-.432.732-3.052.732-9.291V54.165l-2.627-1.808c-3.631-2.5-5.975-5.128-7.186-8.061-.565-1.368-1.329-2.489-1.7-2.49a12.665,12.665,0,0,0-3.223,1.456C57.4,46.5,48.739,48.234,38.2,48.244c-5.536.006-11.135.916-13,2.114-1.282.824-1.318,1.122-1.318,10.753,0,10.975.035,11.088,3.892,12.361A36.338,36.338,0,0,0,45.86,74ZM33.646,68.857a3.138,3.138,0,0,1,2.2-5.374,3.64,3.64,0,0,1,3.272,3.122c0,1.308-2.076,3.323-3.425,3.323a3.329,3.329,0,0,1-2.051-1.072Zm30.42.151c-1.09-1.09-1.213-3.826-.218-4.821,1.21-1.21,3.87-.837,4.865.683,2.064,3.15-2.009,6.777-4.648,4.139ZM28.71,58.667c-1.2-1.443.658-3.218,4.189-4.008,4.018-.9,9.521-.292,10.284,1.135,1.031,1.926-.181,2.573-5.026,2.682a47.054,47.054,0,0,0-6.681.562c-1.522.336-2.262.237-2.767-.371ZM69,58.715a18.456,18.456,0,0,0-5.5-.4c-3.219.152-4.156,0-4.634-.755-1.114-1.758-.068-2.748,3.352-3.176,5.171-.646,10.542.656,11.195,2.714.7,2.207-1.219,2.911-4.413,1.619Zm-49.349,3.4c.183-9.012-.038-9.411-3.337-6.008A9.78,9.78,0,0,0,14.155,64.9c.466,1.855,3.8,5.732,4.685,5.44.426-.141.709-3,.815-8.225ZM85.4,68.855a9.246,9.246,0,0,0-.048-13.134c-2.767-2.767-3.147-2.078-3.332,6.021-.219,9.591.142,10.352,3.38,7.114ZM82.35,49.095c1.226-.859,1.3-1.335,1.3-8.14,0-8.305.261-7.94-5.659-7.94-3.46,0-3.968.162-5.59,1.785-1.6,1.6-1.757,2.075-1.519,4.55a12.946,12.946,0,0,0,5.976,9.209c2.808,1.683,3.725,1.773,5.49.536ZM21.31,47.953C24.9,45.514,28.779,44.725,40,44.145s15.792-1.455,20.258-3.886c3.3-1.8,7.283-5.707,6.728-6.605-.791-1.281-4.315-.7-6.311,1.038-5.972,5.2-12.24,5.43-18.611.676L38.91,33.015H29.172c-6.793,0-9.951.213-10.441.7-1.17,1.17-.941,15.7.247,15.7a22.055,22.055,0,0,0,2.332-1.468Zm34.7-14.764c7.061-5.23,4.792-15.3-3.814-16.93-6.028-1.139-11.981,5.586-10.2,11.526,1.4,4.663,4.957,7.177,9.621,6.8a10.062,10.062,0,0,0,4.395-1.392Zm-7.717-5.348a3.318,3.318,0,0,1,.2-4.788,3.368,3.368,0,0,1,5.859,2.495A3.512,3.512,0,0,1,48.294,27.842Zm-11.081.925c.814-1.029.777-6.494-.047-7.019-1.192-.758-17.65-.534-18.436.252-.912.912-.912,5.885,0,6.8,1.008,1.008,17.683.982,18.483-.029Zm45.512.377c.7-.268.927-1.2.927-3.8,0-4.247.257-4.153-10.84-3.926l-8.2.168-.18,3.153a15.907,15.907,0,0,0,.128,3.955c.241.628,2.149.8,8.774.8a74.566,74.566,0,0,0,9.393-.356Zm-41.787-12.8a22.359,22.359,0,0,1,8.017-4.03c3.151-.6,7.474.67,10.812,3.178L62.82,17.78h5.657c4.091,0,5.842-.223,6.327-.808,1.087-1.31,2.056-10.8,1.207-11.819-.595-.716-4.271-.85-23.339-.847-13.354,0-23.5.245-24.753.592a13.488,13.488,0,0,0-9.282,9.258c-.96,3.477-.537,3.623,10.508,3.623,9.483,0,9.867-.047,11.793-1.441Zm41.787,1.086c1.31-.5,1.214-4.434-.15-6.118-1.468-1.813-2.252-1.114-2.742,2.445-.309,2.248-.213,3.128.385,3.506a2.139,2.139,0,0,0,2.507.167ZM126.255,118.2a4.151,4.151,0,0,1-.415-2.114c0-2.9-.943-3.965-3.516-3.965-1.675,0-2.467-.308-2.908-1.131-.873-1.632.692-2.97,3.473-2.97,2.47,0,2.951-.617,2.951-3.794,0-1.184.343-2.072.879-2.277,1.615-.62,2.637.262,2.637,2.277,0,3.138.49,3.793,2.846,3.8,2.777.012,3.748.677,3.5,2.4-.165,1.167-.584,1.43-2.534,1.589-3.07.25-3.718.877-3.931,3.811-.141,1.943-.424,2.48-1.374,2.616a2.317,2.317,0,0,1-1.611-.244Z" transform="translate(-1.07 -0.291)" fill="rgba(105,224,175,0.94)"/></svg>