<?xml version="1.0"?>
<svg xmlns="http://www.w3.org/2000/svg" xmlns:xlink="http://www.w3.org/1999/xlink" xmlns:svgjs="http://svgjs.com/svgjs" version="1.1" width="512" height="512" x="0" y="0" viewBox="0 0 512 512" style="enable-background:new 0 0 512 512" xml:space="preserve" class=""><g><g xmlns="http://www.w3.org/2000/svg"><path d="m247.51 189.91c-16.189-10.179-42.21-5.146-45.124-4.538-4.051.845-6.648 4.811-5.809 8.863s4.805 6.659 8.861 5.823c6.292-1.294 24.682-3.363 34.087 2.55 1.24.78 2.621 1.152 3.985 1.152 7.487 0 10.365-9.848 4-13.85z" fill="#f8f8f8" data-original="#000000" style="" class=""/><circle cx="224.14" cy="226.568" r="12.04" fill="#f8f8f8" data-original="#000000" style="" class=""/><circle cx="120.656" cy="226.568" r="12.04" fill="#f8f8f8" data-original="#000000" style="" class=""/><path d="m142.41 185.372c-2.914-.607-28.934-5.641-45.124 4.538-6.364 4.001-3.489 13.85 4 13.85 1.364 0 2.745-.372 3.985-1.152 9.406-5.913 27.795-3.846 34.087-2.55 4.048.841 8.019-1.761 8.864-5.813.844-4.055-1.758-8.027-5.812-8.873z" fill="#f8f8f8" data-original="#000000" style="" class=""/><circle cx="172.398" cy="86.233" r="13.251" fill="#f8f8f8" data-original="#000000" style="" class=""/><path d="m450.142 289.371c-16.218 0-31.474 6.31-42.955 17.767-3.011 3.004-7.729 3.01-10.743 0-40.377-40.288-114.436-8.524-102.24 58.611-19.89-17.235-44.179-28.684-70.23-33.02 27.817-15.363 48.085-42.858 53.455-75.878 21.014-4.248 36.699-22.884 36.699-44.891 0-15.725-7.881-29.894-20.486-38.207 3.382-4.536 5.286-10.085 5.286-15.893 0-23.19 0-88.456 0-109.7 0-14.999-10.51-27.582-24.554-30.803-.727-9.973-9.016-17.357-18.657-17.357h-149.91c-33.045 0-59.93 26.265-59.93 58.55v107.34c0 3.577 1.044 6.898 2.917 9.658-11.016 8.43-18.117 21.709-18.117 36.412 0 22.001 15.688 40.64 36.703 44.891 1.761 10.779 5.142 21.162 10.118 30.932 1.325 2.6 3.958 4.097 6.689 4.097 5.555 0 9.227-5.898 6.677-10.905-3.108-6.102-5.494-12.483-7.148-19.073 24.413 8.807 49.572 10.401 74.139 3.922 8.304-2.184 20.806-2.185 29.081-.001 28.638 7.552 54.401 3.203 74.154-3.923-17.266 69.26-104.387 92.442-154.122 41.509-2.895-2.964-7.644-3.021-10.606-.126-2.964 2.894-3.02 7.643-.126 10.606 7.368 7.545 15.649 13.847 24.596 18.818-67.81 11.2-119.813 70.2-119.813 141.534 0 20.545 16.715 37.26 37.26 37.26h226.25c4.143 0 7.5-3.358 7.5-7.5s-3.357-7.5-7.5-7.5h-49.688l49.794-55.184c4.275-4.74 4.04-11.688-.55-16.162l-8.684-8.462 11.994-5.052c7.026-2.961 9.735-11.359 5.802-17.77l-22.228-37.71c18.776 8.057 35.559 20.577 48.781 36.761 18.203 97.222 16.315 91.624 20.263 99.018-7.279 5.564-13.537 4.56-25.368 4.56-4.143 0-7.5 3.358-7.5 7.5s3.357 7.5 7.5 7.5c12.209 0 23.146 1.32 34.926-7.981 22.922 18.596 56.078 4.266 60.767-20.543l6.598-35.231c1.016-5.43 8.717-5.43 9.733 0 .073.388 6.613 35.369 6.71 35.75 4.31 16.784 19.422 28.506 36.749 28.506 19.739 0 34.211-15.024 36.865-29.024l.771-4.114c.763-4.071-1.92-7.99-5.991-8.752-4.069-.763-7.989 1.92-8.753 5.991l-.723 3.857c-6.015 22.626-38.282 22.646-44.33.029l-6.554-35.003c-4.052-21.648-35.162-21.681-39.222 0l-6.55 34.976c-6.016 22.626-38.284 22.645-44.329.028-25.049-133.784-23.665-121.953-23.665-129.777 0-40.782 49.505-61.087 78.199-32.455 8.87 8.853 23.059 8.856 31.935.001 28.746-28.685 78.199-8.274 78.199 32.454 0 10.879-3.68 22.924-3.866 23.924l-13.573 72.479c-.763 4.071 1.92 7.99 5.991 8.752 4.065.762 7.991-1.919 8.753-5.992l13.515-72.168c2.735-9.949 4.181-19.277 4.181-26.996 0-33.548-27.292-60.84-60.839-60.84zm-181.743-120.686c-16.988-6.644-28.702-22.131-28.702-42.868 3.202-3.788 6.255-7.922 9.126-12.337h35.104v44.38c0 8.086-8.087 13.73-15.528 10.825zm30.728 43.275c0 13.232-8.428 24.654-20.309 28.968.027-2.063.019 5.771.019-57.288.329-.083.657-.167.983-.262 11.64 4.659 19.307 15.861 19.307 28.582zm-25.925-179.309c6.259 2.386 10.725 8.429 10.725 15.509v10.32h-13.991c1.567-9.467 2.573-18.807 3.266-25.829zm10.725 40.829v25h-66.927c2.177-7.949 2.238-16.696-.14-25zm-178.12-58.48h149.91c2.148 0 3.87 1.819 3.719 3.937-.071 1-2.021 24.271-4.717 39.543h-45.345c-18.423-24.644-55.526-24.651-73.955 0h-74.54c.039-23.981 20.178-43.48 44.928-43.48zm46.039 94.746c-20.018-17.426-10.354-50.016 15.373-54.327 12.717-2.091 24.721 3.684 31.257 13.62 20.465 30.93-19.963 64.037-46.63 40.707zm-90.969-36.266h67.057c-2.359 8.24-2.335 16.996-.14 25h-66.917zm5.08 109.536c0 63.755-.008 55.842.018 57.907-26.943-9.801-27.012-48.011-.018-57.907zm-1.31-15.653c-1.418 1.394-3.771.524-3.771-1.473v-52.41h74.179c18.533 25.331 56.189 25.284 74.684 0h20.66c-48.334 61.327-127.114 15.811-165.752 53.883zm126.115 83.956c-10.796-2.849-25.896-2.85-36.727 0-28.923 7.628-54.695 1.34-72.93-6.585-.205-3.662-.148.67-.148-71.246 31.427-19.858 96.186 6.075 145.06-34.113 4.455 21.468 19.954 37.38 37.82 43.608 0 61.434.056 58.105-.148 61.752-18.232 7.924-44.002 14.213-72.927 6.584zm5.604 91.949-16.854 39.743c-2.664 6.281-11.565 6.286-14.23.001l-16.838-39.727c15.597 3.564 32.106 3.603 47.922-.017zm-158.087 153.232c-12.274 0-22.26-9.986-22.26-22.26 0-53.033 31.868-98.603 77.881-118.205l-22.3 37.836c-3.938 6.415-1.221 14.811 5.802 17.77l11.993 5.052-8.684 8.462c-4.59 4.473-4.827 11.421-.549 16.163l49.793 55.182zm55.186-62.83 9.926-9.672c6.121-5.965 4.155-15.937-3.995-19.369l-13.399-5.645 20.893-35.447 26.526 114.407zm59.651 62.83-34.353-148.167c4.787-.964 9.673-1.664 14.645-2.085l18.064 42.621c7.832 18.468 34.006 18.496 41.85 0l18.072-42.615c4.939.422 9.825 1.123 14.635 2.102l-34.349 148.144zm105.684-97.515-13.399 5.644c-8.159 3.436-10.11 13.41-3.996 19.369l9.926 9.672-39.951 44.274 26.526-114.408z" fill="#f8f8f8" data-original="#000000" style="" class=""/><path d="m433.96 405.5c4.143 0 7.5-3.358 7.5-7.5v-15.108h15.108c4.143 0 7.5-3.358 7.5-7.5s-3.357-7.5-7.5-7.5h-15.108v-15.108c0-4.142-3.357-7.5-7.5-7.5s-7.5 3.358-7.5 7.5v15.108h-15.107c-4.143 0-7.5 3.358-7.5 7.5s3.357 7.5 7.5 7.5h15.107v15.108c0 4.142 3.358 7.5 7.5 7.5z" fill="#f8f8f8" data-original="#000000" style="" class=""/></g></g></svg>
